<mxfile host="Electron" agent="Mozilla/5.0 (Windows NT 10.0; Win64; x64) AppleWebKit/537.36 (KHTML, like Gecko) draw.io/26.0.15 Chrome/132.0.6834.196 Electron/34.2.0 Safari/537.36" version="26.0.15">
  <diagram name="Страница — 1" id="rY46Pm-oZh-uA9A7FEG9">
    <mxGraphModel dx="4732" dy="3699" grid="1" gridSize="10" guides="1" tooltips="1" connect="1" arrows="1" fold="1" page="1" pageScale="1" pageWidth="827" pageHeight="1169" math="0" shadow="0">
      <root>
        <mxCell id="0" />
        <mxCell id="1" parent="0" />
        <mxCell id="Mwp5StKQjGGefRTtp4Jz-1" value="" style="rounded=0;whiteSpace=wrap;html=1;" parent="1" vertex="1">
          <mxGeometry x="-90" y="-600" width="2800" height="1460" as="geometry" />
        </mxCell>
        <mxCell id="Mwp5StKQjGGefRTtp4Jz-86" value="" style="shape=folder;fontStyle=1;spacingTop=10;tabWidth=40;tabHeight=14;tabPosition=left;html=1;whiteSpace=wrap;" parent="1" vertex="1">
          <mxGeometry x="585" y="-250" width="260" height="210" as="geometry" />
        </mxCell>
        <mxCell id="Mwp5StKQjGGefRTtp4Jz-39" value="" style="shape=folder;fontStyle=1;spacingTop=10;tabWidth=40;tabHeight=14;tabPosition=left;html=1;whiteSpace=wrap;" parent="1" vertex="1">
          <mxGeometry x="-10" y="-330" width="460" height="290" as="geometry" />
        </mxCell>
        <mxCell id="Mwp5StKQjGGefRTtp4Jz-6" value="Общий интерфейс" style="text;align=center;fontStyle=1;verticalAlign=middle;spacingLeft=3;spacingRight=3;strokeColor=none;rotatable=0;points=[[0,0.5],[1,0.5]];portConstraint=eastwest;html=1;" parent="1" vertex="1">
          <mxGeometry x="50" y="-310" width="80" height="26" as="geometry" />
        </mxCell>
        <mxCell id="Mwp5StKQjGGefRTtp4Jz-46" value="&lt;span style=&quot;font-weight: 700;&quot;&gt;ГлавнаяСтраница&lt;/span&gt;" style="swimlane;fontStyle=0;childLayout=stackLayout;horizontal=1;startSize=26;fillColor=none;horizontalStack=0;resizeParent=1;resizeParentMax=0;resizeLast=0;collapsible=1;marginBottom=0;whiteSpace=wrap;html=1;" parent="1" vertex="1">
          <mxGeometry x="20" y="-260" width="160" height="78" as="geometry" />
        </mxCell>
        <mxCell id="Mwp5StKQjGGefRTtp4Jz-47" value="+кнопкаРегистрация()" style="text;strokeColor=none;fillColor=none;align=left;verticalAlign=top;spacingLeft=4;spacingRight=4;overflow=hidden;rotatable=0;points=[[0,0.5],[1,0.5]];portConstraint=eastwest;whiteSpace=wrap;html=1;" parent="Mwp5StKQjGGefRTtp4Jz-46" vertex="1">
          <mxGeometry y="26" width="160" height="26" as="geometry" />
        </mxCell>
        <mxCell id="Mwp5StKQjGGefRTtp4Jz-48" value="&amp;nbsp;+кнопкаВход()" style="text;strokeColor=none;fillColor=none;align=left;verticalAlign=top;spacingLeft=4;spacingRight=4;overflow=hidden;rotatable=0;points=[[0,0.5],[1,0.5]];portConstraint=eastwest;whiteSpace=wrap;html=1;" parent="Mwp5StKQjGGefRTtp4Jz-46" vertex="1">
          <mxGeometry y="52" width="160" height="26" as="geometry" />
        </mxCell>
        <mxCell id="Mwp5StKQjGGefRTtp4Jz-50" value="&lt;b&gt;СтраницаПользователя&lt;/b&gt;" style="swimlane;fontStyle=0;childLayout=stackLayout;horizontal=1;startSize=26;fillColor=none;horizontalStack=0;resizeParent=1;resizeParentMax=0;resizeLast=0;collapsible=1;marginBottom=0;whiteSpace=wrap;html=1;" parent="1" vertex="1">
          <mxGeometry x="635" y="-180" width="160" height="100" as="geometry" />
        </mxCell>
        <mxCell id="Mwp5StKQjGGefRTtp4Jz-51" value="&amp;nbsp;+просмотрВодителей()" style="text;strokeColor=none;fillColor=none;align=left;verticalAlign=top;spacingLeft=4;spacingRight=4;overflow=hidden;rotatable=0;points=[[0,0.5],[1,0.5]];portConstraint=eastwest;whiteSpace=wrap;html=1;" parent="Mwp5StKQjGGefRTtp4Jz-50" vertex="1">
          <mxGeometry y="26" width="160" height="22" as="geometry" />
        </mxCell>
        <mxCell id="Mwp5StKQjGGefRTtp4Jz-52" value="&amp;nbsp;+просмотрТранспорта()" style="text;strokeColor=none;fillColor=none;align=left;verticalAlign=top;spacingLeft=4;spacingRight=4;overflow=hidden;rotatable=0;points=[[0,0.5],[1,0.5]];portConstraint=eastwest;whiteSpace=wrap;html=1;" parent="Mwp5StKQjGGefRTtp4Jz-50" vertex="1">
          <mxGeometry y="48" width="160" height="26" as="geometry" />
        </mxCell>
        <mxCell id="Mwp5StKQjGGefRTtp4Jz-57" value="&amp;nbsp;+просмотрМаршрутов()" style="text;strokeColor=none;fillColor=none;align=left;verticalAlign=top;spacingLeft=4;spacingRight=4;overflow=hidden;rotatable=0;points=[[0,0.5],[1,0.5]];portConstraint=eastwest;whiteSpace=wrap;html=1;" parent="Mwp5StKQjGGefRTtp4Jz-50" vertex="1">
          <mxGeometry y="74" width="160" height="26" as="geometry" />
        </mxCell>
        <mxCell id="Mwp5StKQjGGefRTtp4Jz-53" value="&lt;b&gt;СтраницаРегистрации&lt;/b&gt;" style="swimlane;fontStyle=0;childLayout=stackLayout;horizontal=1;startSize=30;fillColor=none;horizontalStack=0;resizeParent=1;resizeParentMax=0;resizeLast=0;collapsible=1;marginBottom=0;whiteSpace=wrap;html=1;" parent="1" vertex="1">
          <mxGeometry x="230" y="-260" width="160" height="132" as="geometry">
            <mxRectangle x="230" y="-260" width="170" height="30" as="alternateBounds" />
          </mxGeometry>
        </mxCell>
        <mxCell id="Mwp5StKQjGGefRTtp4Jz-54" value="+вводФИО()" style="text;strokeColor=none;fillColor=none;align=left;verticalAlign=top;spacingLeft=4;spacingRight=4;overflow=hidden;rotatable=0;points=[[0,0.5],[1,0.5]];portConstraint=eastwest;whiteSpace=wrap;html=1;" parent="Mwp5StKQjGGefRTtp4Jz-53" vertex="1">
          <mxGeometry y="30" width="160" height="26" as="geometry" />
        </mxCell>
        <mxCell id="Mwp5StKQjGGefRTtp4Jz-55" value="+вводПочты()" style="text;strokeColor=none;fillColor=none;align=left;verticalAlign=top;spacingLeft=4;spacingRight=4;overflow=hidden;rotatable=0;points=[[0,0.5],[1,0.5]];portConstraint=eastwest;whiteSpace=wrap;html=1;" parent="Mwp5StKQjGGefRTtp4Jz-53" vertex="1">
          <mxGeometry y="56" width="160" height="24" as="geometry" />
        </mxCell>
        <mxCell id="Mwp5StKQjGGefRTtp4Jz-62" value="+вводПароля()" style="text;strokeColor=none;fillColor=none;align=left;verticalAlign=top;spacingLeft=4;spacingRight=4;overflow=hidden;rotatable=0;points=[[0,0.5],[1,0.5]];portConstraint=eastwest;whiteSpace=wrap;html=1;" parent="Mwp5StKQjGGefRTtp4Jz-53" vertex="1">
          <mxGeometry y="80" width="160" height="26" as="geometry" />
        </mxCell>
        <mxCell id="Mwp5StKQjGGefRTtp4Jz-63" value="&amp;nbsp;+кнопкаРегистрация()" style="text;strokeColor=none;fillColor=none;align=left;verticalAlign=top;spacingLeft=4;spacingRight=4;overflow=hidden;rotatable=0;points=[[0,0.5],[1,0.5]];portConstraint=eastwest;whiteSpace=wrap;html=1;" parent="Mwp5StKQjGGefRTtp4Jz-53" vertex="1">
          <mxGeometry y="106" width="160" height="26" as="geometry" />
        </mxCell>
        <mxCell id="Mwp5StKQjGGefRTtp4Jz-59" value="&lt;b&gt;СтраницаАвторизации&lt;/b&gt;" style="swimlane;fontStyle=0;childLayout=stackLayout;horizontal=1;startSize=26;fillColor=none;horizontalStack=0;resizeParent=1;resizeParentMax=0;resizeLast=0;collapsible=1;marginBottom=0;whiteSpace=wrap;html=1;" parent="1" vertex="1">
          <mxGeometry x="20" y="-160" width="160" height="104" as="geometry" />
        </mxCell>
        <mxCell id="Mwp5StKQjGGefRTtp4Jz-60" value="&lt;div&gt;+вводПочты()&lt;/div&gt;&lt;div&gt;&amp;nbsp; &amp;nbsp; &amp;nbsp; &amp;nbsp;&lt;/div&gt;" style="text;strokeColor=none;fillColor=none;align=left;verticalAlign=top;spacingLeft=4;spacingRight=4;overflow=hidden;rotatable=0;points=[[0,0.5],[1,0.5]];portConstraint=eastwest;whiteSpace=wrap;html=1;" parent="Mwp5StKQjGGefRTtp4Jz-59" vertex="1">
          <mxGeometry y="26" width="160" height="26" as="geometry" />
        </mxCell>
        <mxCell id="Mwp5StKQjGGefRTtp4Jz-61" value="&lt;div&gt;&amp;nbsp;+вводПароля()&lt;/div&gt;&lt;div&gt;&amp;nbsp; &amp;nbsp; &amp;nbsp; &amp;nbsp;&lt;/div&gt;" style="text;strokeColor=none;fillColor=none;align=left;verticalAlign=top;spacingLeft=4;spacingRight=4;overflow=hidden;rotatable=0;points=[[0,0.5],[1,0.5]];portConstraint=eastwest;whiteSpace=wrap;html=1;" parent="Mwp5StKQjGGefRTtp4Jz-59" vertex="1">
          <mxGeometry y="52" width="160" height="26" as="geometry" />
        </mxCell>
        <mxCell id="Mwp5StKQjGGefRTtp4Jz-58" value="&amp;nbsp;+кнопкаВход()" style="text;strokeColor=none;fillColor=none;align=left;verticalAlign=top;spacingLeft=4;spacingRight=4;overflow=hidden;rotatable=0;points=[[0,0.5],[1,0.5]];portConstraint=eastwest;whiteSpace=wrap;html=1;" parent="Mwp5StKQjGGefRTtp4Jz-59" vertex="1">
          <mxGeometry y="78" width="160" height="26" as="geometry" />
        </mxCell>
        <mxCell id="Mwp5StKQjGGefRTtp4Jz-68" value="" style="shape=folder;fontStyle=1;spacingTop=10;tabWidth=40;tabHeight=14;tabPosition=left;html=1;whiteSpace=wrap;" parent="1" vertex="1">
          <mxGeometry x="1000" y="-270" width="1610" height="340" as="geometry" />
        </mxCell>
        <mxCell id="Mwp5StKQjGGefRTtp4Jz-69" value="ИнтерфейсАдминистратора" style="text;align=center;fontStyle=1;verticalAlign=middle;spacingLeft=3;spacingRight=3;strokeColor=none;rotatable=0;points=[[0,0.5],[1,0.5]];portConstraint=eastwest;html=1;" parent="1" vertex="1">
          <mxGeometry x="1080" y="-250" width="80" height="26" as="geometry" />
        </mxCell>
        <mxCell id="Mwp5StKQjGGefRTtp4Jz-250" style="edgeStyle=orthogonalEdgeStyle;rounded=0;orthogonalLoop=1;jettySize=auto;html=1;entryX=0.5;entryY=0;entryDx=0;entryDy=0;" parent="1" source="Mwp5StKQjGGefRTtp4Jz-77" target="Mwp5StKQjGGefRTtp4Jz-201" edge="1">
          <mxGeometry relative="1" as="geometry">
            <Array as="points">
              <mxPoint x="1148" y="-20" />
              <mxPoint x="690" y="-20" />
            </Array>
          </mxGeometry>
        </mxCell>
        <mxCell id="Mwp5StKQjGGefRTtp4Jz-77" value="&lt;b&gt;УправлениеВодителями&lt;/b&gt;" style="swimlane;fontStyle=0;childLayout=stackLayout;horizontal=1;startSize=30;fillColor=none;horizontalStack=0;resizeParent=1;resizeParentMax=0;resizeLast=0;collapsible=1;marginBottom=0;whiteSpace=wrap;html=1;" parent="1" vertex="1">
          <mxGeometry x="1046" y="-193" width="204" height="130" as="geometry">
            <mxRectangle x="230" y="-260" width="170" height="30" as="alternateBounds" />
          </mxGeometry>
        </mxCell>
        <mxCell id="Mwp5StKQjGGefRTtp4Jz-78" value="&amp;nbsp;+списокВодителей()" style="text;strokeColor=none;fillColor=none;align=left;verticalAlign=top;spacingLeft=4;spacingRight=4;overflow=hidden;rotatable=0;points=[[0,0.5],[1,0.5]];portConstraint=eastwest;whiteSpace=wrap;html=1;" parent="Mwp5StKQjGGefRTtp4Jz-77" vertex="1">
          <mxGeometry y="30" width="204" height="26" as="geometry" />
        </mxCell>
        <mxCell id="Mwp5StKQjGGefRTtp4Jz-79" value="&amp;nbsp;+кнопкаДобавитьВодителя()" style="text;strokeColor=none;fillColor=none;align=left;verticalAlign=top;spacingLeft=4;spacingRight=4;overflow=hidden;rotatable=0;points=[[0,0.5],[1,0.5]];portConstraint=eastwest;whiteSpace=wrap;html=1;" parent="Mwp5StKQjGGefRTtp4Jz-77" vertex="1">
          <mxGeometry y="56" width="204" height="24" as="geometry" />
        </mxCell>
        <mxCell id="Mwp5StKQjGGefRTtp4Jz-136" value="&amp;nbsp;+кнопкаДобавитьВодителя()" style="text;strokeColor=none;fillColor=none;align=left;verticalAlign=top;spacingLeft=4;spacingRight=4;overflow=hidden;rotatable=0;points=[[0,0.5],[1,0.5]];portConstraint=eastwest;whiteSpace=wrap;html=1;" parent="Mwp5StKQjGGefRTtp4Jz-77" vertex="1">
          <mxGeometry y="80" width="204" height="24" as="geometry" />
        </mxCell>
        <mxCell id="Mwp5StKQjGGefRTtp4Jz-80" value="+удалитьВодителя()" style="text;strokeColor=none;fillColor=none;align=left;verticalAlign=top;spacingLeft=4;spacingRight=4;overflow=hidden;rotatable=0;points=[[0,0.5],[1,0.5]];portConstraint=eastwest;whiteSpace=wrap;html=1;" parent="Mwp5StKQjGGefRTtp4Jz-77" vertex="1">
          <mxGeometry y="104" width="204" height="26" as="geometry" />
        </mxCell>
        <mxCell id="Mwp5StKQjGGefRTtp4Jz-87" value="ИнтерфейсПользователяИВодителя" style="text;align=center;fontStyle=1;verticalAlign=middle;spacingLeft=3;spacingRight=3;strokeColor=none;rotatable=0;points=[[0,0.5],[1,0.5]];portConstraint=eastwest;html=1;" parent="1" vertex="1">
          <mxGeometry x="585" y="-220" width="260" height="26" as="geometry" />
        </mxCell>
        <mxCell id="Mwp5StKQjGGefRTtp4Jz-125" value="" style="endArrow=open;endFill=1;endSize=12;html=1;rounded=0;exitX=0;exitY=0;exitDx=460;exitDy=14;exitPerimeter=0;" parent="1" source="Mwp5StKQjGGefRTtp4Jz-39" target="Mwp5StKQjGGefRTtp4Jz-86" edge="1">
          <mxGeometry width="160" relative="1" as="geometry">
            <mxPoint x="490" y="-310" as="sourcePoint" />
            <mxPoint x="650" y="-310" as="targetPoint" />
          </mxGeometry>
        </mxCell>
        <mxCell id="Mwp5StKQjGGefRTtp4Jz-126" value="доступно для пользователей и водителей" style="text;align=center;fontStyle=1;verticalAlign=middle;spacingLeft=3;spacingRight=3;strokeColor=none;rotatable=0;points=[[0,0.5],[1,0.5]];portConstraint=eastwest;html=1;" parent="1" vertex="1">
          <mxGeometry x="590" y="-330" width="80" height="26" as="geometry" />
        </mxCell>
        <mxCell id="Mwp5StKQjGGefRTtp4Jz-134" style="edgeStyle=orthogonalEdgeStyle;rounded=0;orthogonalLoop=1;jettySize=auto;html=1;entryX=0;entryY=0;entryDx=143;entryDy=14;entryPerimeter=0;" parent="1" source="Mwp5StKQjGGefRTtp4Jz-39" target="Mwp5StKQjGGefRTtp4Jz-68" edge="1">
          <mxGeometry relative="1" as="geometry">
            <Array as="points">
              <mxPoint x="220" y="-420" />
              <mxPoint x="1163" y="-420" />
            </Array>
          </mxGeometry>
        </mxCell>
        <mxCell id="Mwp5StKQjGGefRTtp4Jz-135" value="доступно для администратора" style="text;align=center;fontStyle=1;verticalAlign=middle;spacingLeft=3;spacingRight=3;strokeColor=none;rotatable=0;points=[[0,0.5],[1,0.5]];portConstraint=eastwest;html=1;" parent="1" vertex="1">
          <mxGeometry x="610" y="-470" width="80" height="26" as="geometry" />
        </mxCell>
        <mxCell id="Mwp5StKQjGGefRTtp4Jz-137" value="&lt;b&gt;ДобавитьВодителя&lt;/b&gt;" style="swimlane;fontStyle=0;childLayout=stackLayout;horizontal=1;startSize=30;fillColor=none;horizontalStack=0;resizeParent=1;resizeParentMax=0;resizeLast=0;collapsible=1;marginBottom=0;whiteSpace=wrap;html=1;" parent="1" vertex="1">
          <mxGeometry x="1300" y="-200" width="204" height="156" as="geometry">
            <mxRectangle x="230" y="-260" width="170" height="30" as="alternateBounds" />
          </mxGeometry>
        </mxCell>
        <mxCell id="Mwp5StKQjGGefRTtp4Jz-138" value="&amp;nbsp;+вводФИО()" style="text;strokeColor=none;fillColor=none;align=left;verticalAlign=top;spacingLeft=4;spacingRight=4;overflow=hidden;rotatable=0;points=[[0,0.5],[1,0.5]];portConstraint=eastwest;whiteSpace=wrap;html=1;" parent="Mwp5StKQjGGefRTtp4Jz-137" vertex="1">
          <mxGeometry y="30" width="204" height="26" as="geometry" />
        </mxCell>
        <mxCell id="Mwp5StKQjGGefRTtp4Jz-139" value="&amp;nbsp;+вводНомерЛицензии()" style="text;strokeColor=none;fillColor=none;align=left;verticalAlign=top;spacingLeft=4;spacingRight=4;overflow=hidden;rotatable=0;points=[[0,0.5],[1,0.5]];portConstraint=eastwest;whiteSpace=wrap;html=1;" parent="Mwp5StKQjGGefRTtp4Jz-137" vertex="1">
          <mxGeometry y="56" width="204" height="24" as="geometry" />
        </mxCell>
        <mxCell id="Mwp5StKQjGGefRTtp4Jz-140" value="+вводТелефон()" style="text;strokeColor=none;fillColor=none;align=left;verticalAlign=top;spacingLeft=4;spacingRight=4;overflow=hidden;rotatable=0;points=[[0,0.5],[1,0.5]];portConstraint=eastwest;whiteSpace=wrap;html=1;" parent="Mwp5StKQjGGefRTtp4Jz-137" vertex="1">
          <mxGeometry y="80" width="204" height="24" as="geometry" />
        </mxCell>
        <mxCell id="Mwp5StKQjGGefRTtp4Jz-141" value="&amp;nbsp;+вводСтаж()" style="text;strokeColor=none;fillColor=none;align=left;verticalAlign=top;spacingLeft=4;spacingRight=4;overflow=hidden;rotatable=0;points=[[0,0.5],[1,0.5]];portConstraint=eastwest;whiteSpace=wrap;html=1;" parent="Mwp5StKQjGGefRTtp4Jz-137" vertex="1">
          <mxGeometry y="104" width="204" height="26" as="geometry" />
        </mxCell>
        <mxCell id="Mwp5StKQjGGefRTtp4Jz-142" value="+кнопкаСохранить()" style="text;strokeColor=none;fillColor=none;align=left;verticalAlign=top;spacingLeft=4;spacingRight=4;overflow=hidden;rotatable=0;points=[[0,0.5],[1,0.5]];portConstraint=eastwest;whiteSpace=wrap;html=1;" parent="Mwp5StKQjGGefRTtp4Jz-137" vertex="1">
          <mxGeometry y="130" width="204" height="26" as="geometry" />
        </mxCell>
        <mxCell id="Mwp5StKQjGGefRTtp4Jz-143" value="&lt;b&gt;УправлениеТранспортом&lt;/b&gt;" style="swimlane;fontStyle=0;childLayout=stackLayout;horizontal=1;startSize=30;fillColor=none;horizontalStack=0;resizeParent=1;resizeParentMax=0;resizeLast=0;collapsible=1;marginBottom=0;whiteSpace=wrap;html=1;" parent="1" vertex="1">
          <mxGeometry x="1540" y="-200" width="204" height="156" as="geometry">
            <mxRectangle x="230" y="-260" width="170" height="30" as="alternateBounds" />
          </mxGeometry>
        </mxCell>
        <mxCell id="Mwp5StKQjGGefRTtp4Jz-144" value="&amp;nbsp;+списокТранспортныхСредств()" style="text;strokeColor=none;fillColor=none;align=left;verticalAlign=top;spacingLeft=4;spacingRight=4;overflow=hidden;rotatable=0;points=[[0,0.5],[1,0.5]];portConstraint=eastwest;whiteSpace=wrap;html=1;" parent="Mwp5StKQjGGefRTtp4Jz-143" vertex="1">
          <mxGeometry y="30" width="204" height="26" as="geometry" />
        </mxCell>
        <mxCell id="Mwp5StKQjGGefRTtp4Jz-145" value="+кнопкаДобавитьТранспорт()" style="text;strokeColor=none;fillColor=none;align=left;verticalAlign=top;spacingLeft=4;spacingRight=4;overflow=hidden;rotatable=0;points=[[0,0.5],[1,0.5]];portConstraint=eastwest;whiteSpace=wrap;html=1;" parent="Mwp5StKQjGGefRTtp4Jz-143" vertex="1">
          <mxGeometry y="56" width="204" height="24" as="geometry" />
        </mxCell>
        <mxCell id="Mwp5StKQjGGefRTtp4Jz-146" value="+кнопкаОбслужитьМашину()" style="text;strokeColor=none;fillColor=none;align=left;verticalAlign=top;spacingLeft=4;spacingRight=4;overflow=hidden;rotatable=0;points=[[0,0.5],[1,0.5]];portConstraint=eastwest;whiteSpace=wrap;html=1;" parent="Mwp5StKQjGGefRTtp4Jz-143" vertex="1">
          <mxGeometry y="80" width="204" height="24" as="geometry" />
        </mxCell>
        <mxCell id="Mwp5StKQjGGefRTtp4Jz-147" value="+сортировкаПоПробегу()" style="text;strokeColor=none;fillColor=none;align=left;verticalAlign=top;spacingLeft=4;spacingRight=4;overflow=hidden;rotatable=0;points=[[0,0.5],[1,0.5]];portConstraint=eastwest;whiteSpace=wrap;html=1;" parent="Mwp5StKQjGGefRTtp4Jz-143" vertex="1">
          <mxGeometry y="104" width="204" height="26" as="geometry" />
        </mxCell>
        <mxCell id="Mwp5StKQjGGefRTtp4Jz-148" value="+сортировкаПоГодуВыпуска()" style="text;strokeColor=none;fillColor=none;align=left;verticalAlign=top;spacingLeft=4;spacingRight=4;overflow=hidden;rotatable=0;points=[[0,0.5],[1,0.5]];portConstraint=eastwest;whiteSpace=wrap;html=1;" parent="Mwp5StKQjGGefRTtp4Jz-143" vertex="1">
          <mxGeometry y="130" width="204" height="26" as="geometry" />
        </mxCell>
        <mxCell id="Mwp5StKQjGGefRTtp4Jz-149" value="&lt;b&gt;ДобавитьТранспорт&lt;/b&gt;" style="swimlane;fontStyle=0;childLayout=stackLayout;horizontal=1;startSize=30;fillColor=none;horizontalStack=0;resizeParent=1;resizeParentMax=0;resizeLast=0;collapsible=1;marginBottom=0;whiteSpace=wrap;html=1;" parent="1" vertex="1">
          <mxGeometry x="1790" y="-200" width="204" height="156" as="geometry">
            <mxRectangle x="230" y="-260" width="170" height="30" as="alternateBounds" />
          </mxGeometry>
        </mxCell>
        <mxCell id="Mwp5StKQjGGefRTtp4Jz-150" value="&amp;nbsp;+вводГосномер()" style="text;strokeColor=none;fillColor=none;align=left;verticalAlign=top;spacingLeft=4;spacingRight=4;overflow=hidden;rotatable=0;points=[[0,0.5],[1,0.5]];portConstraint=eastwest;whiteSpace=wrap;html=1;" parent="Mwp5StKQjGGefRTtp4Jz-149" vertex="1">
          <mxGeometry y="30" width="204" height="26" as="geometry" />
        </mxCell>
        <mxCell id="Mwp5StKQjGGefRTtp4Jz-151" value="+вводМодель()" style="text;strokeColor=none;fillColor=none;align=left;verticalAlign=top;spacingLeft=4;spacingRight=4;overflow=hidden;rotatable=0;points=[[0,0.5],[1,0.5]];portConstraint=eastwest;whiteSpace=wrap;html=1;" parent="Mwp5StKQjGGefRTtp4Jz-149" vertex="1">
          <mxGeometry y="56" width="204" height="24" as="geometry" />
        </mxCell>
        <mxCell id="Mwp5StKQjGGefRTtp4Jz-152" value="+вводПроизводитель()" style="text;strokeColor=none;fillColor=none;align=left;verticalAlign=top;spacingLeft=4;spacingRight=4;overflow=hidden;rotatable=0;points=[[0,0.5],[1,0.5]];portConstraint=eastwest;whiteSpace=wrap;html=1;" parent="Mwp5StKQjGGefRTtp4Jz-149" vertex="1">
          <mxGeometry y="80" width="204" height="24" as="geometry" />
        </mxCell>
        <mxCell id="Mwp5StKQjGGefRTtp4Jz-153" value="+вводПробег()" style="text;strokeColor=none;fillColor=none;align=left;verticalAlign=top;spacingLeft=4;spacingRight=4;overflow=hidden;rotatable=0;points=[[0,0.5],[1,0.5]];portConstraint=eastwest;whiteSpace=wrap;html=1;" parent="Mwp5StKQjGGefRTtp4Jz-149" vertex="1">
          <mxGeometry y="104" width="204" height="26" as="geometry" />
        </mxCell>
        <mxCell id="Mwp5StKQjGGefRTtp4Jz-154" value="+кнопкаСохранить()" style="text;strokeColor=none;fillColor=none;align=left;verticalAlign=top;spacingLeft=4;spacingRight=4;overflow=hidden;rotatable=0;points=[[0,0.5],[1,0.5]];portConstraint=eastwest;whiteSpace=wrap;html=1;" parent="Mwp5StKQjGGefRTtp4Jz-149" vertex="1">
          <mxGeometry y="130" width="204" height="26" as="geometry" />
        </mxCell>
        <mxCell id="Mwp5StKQjGGefRTtp4Jz-155" value="&lt;b&gt;УправлениеМаршрутами&lt;/b&gt;" style="swimlane;fontStyle=0;childLayout=stackLayout;horizontal=1;startSize=30;fillColor=none;horizontalStack=0;resizeParent=1;resizeParentMax=0;resizeLast=0;collapsible=1;marginBottom=0;whiteSpace=wrap;html=1;" parent="1" vertex="1">
          <mxGeometry x="2030" y="-196" width="204" height="156" as="geometry">
            <mxRectangle x="230" y="-260" width="170" height="30" as="alternateBounds" />
          </mxGeometry>
        </mxCell>
        <mxCell id="Mwp5StKQjGGefRTtp4Jz-162" value="&amp;nbsp;+списокМаршрутов()" style="text;strokeColor=none;fillColor=none;align=left;verticalAlign=top;spacingLeft=4;spacingRight=4;overflow=hidden;rotatable=0;points=[[0,0.5],[1,0.5]];portConstraint=eastwest;whiteSpace=wrap;html=1;" parent="Mwp5StKQjGGefRTtp4Jz-155" vertex="1">
          <mxGeometry y="30" width="204" height="26" as="geometry" />
        </mxCell>
        <mxCell id="Mwp5StKQjGGefRTtp4Jz-157" value="+кнопкаДобавитьМаршрут()" style="text;strokeColor=none;fillColor=none;align=left;verticalAlign=top;spacingLeft=4;spacingRight=4;overflow=hidden;rotatable=0;points=[[0,0.5],[1,0.5]];portConstraint=eastwest;whiteSpace=wrap;html=1;" parent="Mwp5StKQjGGefRTtp4Jz-155" vertex="1">
          <mxGeometry y="56" width="204" height="24" as="geometry" />
        </mxCell>
        <mxCell id="Mwp5StKQjGGefRTtp4Jz-158" value="+кнопкаПробегМашины()" style="text;strokeColor=none;fillColor=none;align=left;verticalAlign=top;spacingLeft=4;spacingRight=4;overflow=hidden;rotatable=0;points=[[0,0.5],[1,0.5]];portConstraint=eastwest;whiteSpace=wrap;html=1;" parent="Mwp5StKQjGGefRTtp4Jz-155" vertex="1">
          <mxGeometry y="80" width="204" height="24" as="geometry" />
        </mxCell>
        <mxCell id="Mwp5StKQjGGefRTtp4Jz-159" value="+редактироватьМаршрут()" style="text;strokeColor=none;fillColor=none;align=left;verticalAlign=top;spacingLeft=4;spacingRight=4;overflow=hidden;rotatable=0;points=[[0,0.5],[1,0.5]];portConstraint=eastwest;whiteSpace=wrap;html=1;" parent="Mwp5StKQjGGefRTtp4Jz-155" vertex="1">
          <mxGeometry y="104" width="204" height="26" as="geometry" />
        </mxCell>
        <mxCell id="Mwp5StKQjGGefRTtp4Jz-160" value="+удалитьМаршрут()" style="text;strokeColor=none;fillColor=none;align=left;verticalAlign=top;spacingLeft=4;spacingRight=4;overflow=hidden;rotatable=0;points=[[0,0.5],[1,0.5]];portConstraint=eastwest;whiteSpace=wrap;html=1;" parent="Mwp5StKQjGGefRTtp4Jz-155" vertex="1">
          <mxGeometry y="130" width="204" height="26" as="geometry" />
        </mxCell>
        <mxCell id="Mwp5StKQjGGefRTtp4Jz-161" value="&lt;b&gt;ДобавитьМаршрут&lt;/b&gt;" style="swimlane;fontStyle=0;childLayout=stackLayout;horizontal=1;startSize=30;fillColor=none;horizontalStack=0;resizeParent=1;resizeParentMax=0;resizeLast=0;collapsible=1;marginBottom=0;whiteSpace=wrap;html=1;" parent="1" vertex="1">
          <mxGeometry x="2300" y="-196" width="250" height="234" as="geometry">
            <mxRectangle x="230" y="-260" width="170" height="30" as="alternateBounds" />
          </mxGeometry>
        </mxCell>
        <mxCell id="Mwp5StKQjGGefRTtp4Jz-163" value="+вводДатаНачала()" style="text;strokeColor=none;fillColor=none;align=left;verticalAlign=top;spacingLeft=4;spacingRight=4;overflow=hidden;rotatable=0;points=[[0,0.5],[1,0.5]];portConstraint=eastwest;whiteSpace=wrap;html=1;" parent="Mwp5StKQjGGefRTtp4Jz-161" vertex="1">
          <mxGeometry y="30" width="250" height="24" as="geometry" />
        </mxCell>
        <mxCell id="Mwp5StKQjGGefRTtp4Jz-164" value="+вводДатаОкончания()" style="text;strokeColor=none;fillColor=none;align=left;verticalAlign=top;spacingLeft=4;spacingRight=4;overflow=hidden;rotatable=0;points=[[0,0.5],[1,0.5]];portConstraint=eastwest;whiteSpace=wrap;html=1;" parent="Mwp5StKQjGGefRTtp4Jz-161" vertex="1">
          <mxGeometry y="54" width="250" height="24" as="geometry" />
        </mxCell>
        <mxCell id="Mwp5StKQjGGefRTtp4Jz-165" value="+вводНачальноеМестоположение()" style="text;strokeColor=none;fillColor=none;align=left;verticalAlign=top;spacingLeft=4;spacingRight=4;overflow=hidden;rotatable=0;points=[[0,0.5],[1,0.5]];portConstraint=eastwest;whiteSpace=wrap;html=1;" parent="Mwp5StKQjGGefRTtp4Jz-161" vertex="1">
          <mxGeometry y="78" width="250" height="26" as="geometry" />
        </mxCell>
        <mxCell id="Mwp5StKQjGGefRTtp4Jz-166" value="вводОкончательноеМестоположение()" style="text;strokeColor=none;fillColor=none;align=left;verticalAlign=top;spacingLeft=4;spacingRight=4;overflow=hidden;rotatable=0;points=[[0,0.5],[1,0.5]];portConstraint=eastwest;whiteSpace=wrap;html=1;" parent="Mwp5StKQjGGefRTtp4Jz-161" vertex="1">
          <mxGeometry y="104" width="250" height="26" as="geometry" />
        </mxCell>
        <mxCell id="Mwp5StKQjGGefRTtp4Jz-172" value="+вводРасстояние()" style="text;strokeColor=none;fillColor=none;align=left;verticalAlign=top;spacingLeft=4;spacingRight=4;overflow=hidden;rotatable=0;points=[[0,0.5],[1,0.5]];portConstraint=eastwest;whiteSpace=wrap;html=1;" parent="Mwp5StKQjGGefRTtp4Jz-161" vertex="1">
          <mxGeometry y="130" width="250" height="26" as="geometry" />
        </mxCell>
        <mxCell id="Mwp5StKQjGGefRTtp4Jz-171" value="+выборВодителя()" style="text;strokeColor=none;fillColor=none;align=left;verticalAlign=top;spacingLeft=4;spacingRight=4;overflow=hidden;rotatable=0;points=[[0,0.5],[1,0.5]];portConstraint=eastwest;whiteSpace=wrap;html=1;" parent="Mwp5StKQjGGefRTtp4Jz-161" vertex="1">
          <mxGeometry y="156" width="250" height="26" as="geometry" />
        </mxCell>
        <mxCell id="Mwp5StKQjGGefRTtp4Jz-170" value="+выборТранспорта()" style="text;strokeColor=none;fillColor=none;align=left;verticalAlign=top;spacingLeft=4;spacingRight=4;overflow=hidden;rotatable=0;points=[[0,0.5],[1,0.5]];portConstraint=eastwest;whiteSpace=wrap;html=1;" parent="Mwp5StKQjGGefRTtp4Jz-161" vertex="1">
          <mxGeometry y="182" width="250" height="26" as="geometry" />
        </mxCell>
        <mxCell id="Mwp5StKQjGGefRTtp4Jz-168" value="+кнопкаСохранить()" style="text;strokeColor=none;fillColor=none;align=left;verticalAlign=top;spacingLeft=4;spacingRight=4;overflow=hidden;rotatable=0;points=[[0,0.5],[1,0.5]];portConstraint=eastwest;whiteSpace=wrap;html=1;" parent="Mwp5StKQjGGefRTtp4Jz-161" vertex="1">
          <mxGeometry y="208" width="250" height="26" as="geometry" />
        </mxCell>
        <mxCell id="Mwp5StKQjGGefRTtp4Jz-174" value="" style="shape=folder;fontStyle=1;spacingTop=10;tabWidth=40;tabHeight=14;tabPosition=left;html=1;whiteSpace=wrap;" parent="1" vertex="1">
          <mxGeometry x="350" y="90" width="460" height="570" as="geometry" />
        </mxCell>
        <mxCell id="Mwp5StKQjGGefRTtp4Jz-175" value="База данных" style="text;align=center;fontStyle=1;verticalAlign=middle;spacingLeft=3;spacingRight=3;strokeColor=none;rotatable=0;points=[[0,0.5],[1,0.5]];portConstraint=eastwest;html=1;" parent="1" vertex="1">
          <mxGeometry x="374" y="110" width="80" height="26" as="geometry" />
        </mxCell>
        <mxCell id="Mwp5StKQjGGefRTtp4Jz-176" value="&lt;b&gt;Vehicles&lt;/b&gt;" style="swimlane;fontStyle=0;childLayout=stackLayout;horizontal=1;startSize=30;fillColor=none;horizontalStack=0;resizeParent=1;resizeParentMax=0;resizeLast=0;collapsible=1;marginBottom=0;whiteSpace=wrap;html=1;" parent="1" vertex="1">
          <mxGeometry x="374" y="160" width="160" height="210" as="geometry">
            <mxRectangle x="230" y="-260" width="170" height="30" as="alternateBounds" />
          </mxGeometry>
        </mxCell>
        <mxCell id="Mwp5StKQjGGefRTtp4Jz-177" value="+Id" style="text;strokeColor=none;fillColor=none;align=left;verticalAlign=top;spacingLeft=4;spacingRight=4;overflow=hidden;rotatable=0;points=[[0,0.5],[1,0.5]];portConstraint=eastwest;whiteSpace=wrap;html=1;" parent="Mwp5StKQjGGefRTtp4Jz-176" vertex="1">
          <mxGeometry y="30" width="160" height="26" as="geometry" />
        </mxCell>
        <mxCell id="Mwp5StKQjGGefRTtp4Jz-178" value="&amp;nbsp;+LicensePlate" style="text;strokeColor=none;fillColor=none;align=left;verticalAlign=top;spacingLeft=4;spacingRight=4;overflow=hidden;rotatable=0;points=[[0,0.5],[1,0.5]];portConstraint=eastwest;whiteSpace=wrap;html=1;" parent="Mwp5StKQjGGefRTtp4Jz-176" vertex="1">
          <mxGeometry y="56" width="160" height="24" as="geometry" />
        </mxCell>
        <mxCell id="Mwp5StKQjGGefRTtp4Jz-179" value="+Model" style="text;strokeColor=none;fillColor=none;align=left;verticalAlign=top;spacingLeft=4;spacingRight=4;overflow=hidden;rotatable=0;points=[[0,0.5],[1,0.5]];portConstraint=eastwest;whiteSpace=wrap;html=1;" parent="Mwp5StKQjGGefRTtp4Jz-176" vertex="1">
          <mxGeometry y="80" width="160" height="26" as="geometry" />
        </mxCell>
        <mxCell id="Mwp5StKQjGGefRTtp4Jz-180" value="+Manufacturer" style="text;strokeColor=none;fillColor=none;align=left;verticalAlign=top;spacingLeft=4;spacingRight=4;overflow=hidden;rotatable=0;points=[[0,0.5],[1,0.5]];portConstraint=eastwest;whiteSpace=wrap;html=1;" parent="Mwp5StKQjGGefRTtp4Jz-176" vertex="1">
          <mxGeometry y="106" width="160" height="26" as="geometry" />
        </mxCell>
        <mxCell id="Mwp5StKQjGGefRTtp4Jz-200" value="&amp;nbsp;+YearOfManufacture" style="text;strokeColor=none;fillColor=none;align=left;verticalAlign=top;spacingLeft=4;spacingRight=4;overflow=hidden;rotatable=0;points=[[0,0.5],[1,0.5]];portConstraint=eastwest;whiteSpace=wrap;html=1;" parent="Mwp5StKQjGGefRTtp4Jz-176" vertex="1">
          <mxGeometry y="132" width="160" height="26" as="geometry" />
        </mxCell>
        <mxCell id="Mwp5StKQjGGefRTtp4Jz-199" value="&amp;nbsp;+Mileage" style="text;strokeColor=none;fillColor=none;align=left;verticalAlign=top;spacingLeft=4;spacingRight=4;overflow=hidden;rotatable=0;points=[[0,0.5],[1,0.5]];portConstraint=eastwest;whiteSpace=wrap;html=1;" parent="Mwp5StKQjGGefRTtp4Jz-176" vertex="1">
          <mxGeometry y="158" width="160" height="26" as="geometry" />
        </mxCell>
        <mxCell id="Mwp5StKQjGGefRTtp4Jz-198" value="+Status" style="text;strokeColor=none;fillColor=none;align=left;verticalAlign=top;spacingLeft=4;spacingRight=4;overflow=hidden;rotatable=0;points=[[0,0.5],[1,0.5]];portConstraint=eastwest;whiteSpace=wrap;html=1;" parent="Mwp5StKQjGGefRTtp4Jz-176" vertex="1">
          <mxGeometry y="184" width="160" height="26" as="geometry" />
        </mxCell>
        <mxCell id="Mwp5StKQjGGefRTtp4Jz-201" value="&lt;b&gt;Drivers&lt;/b&gt;" style="swimlane;fontStyle=0;childLayout=stackLayout;horizontal=1;startSize=30;fillColor=none;horizontalStack=0;resizeParent=1;resizeParentMax=0;resizeLast=0;collapsible=1;marginBottom=0;whiteSpace=wrap;html=1;" parent="1" vertex="1">
          <mxGeometry x="610" y="160" width="160" height="158" as="geometry">
            <mxRectangle x="230" y="-260" width="170" height="30" as="alternateBounds" />
          </mxGeometry>
        </mxCell>
        <mxCell id="Mwp5StKQjGGefRTtp4Jz-202" value="+Id" style="text;strokeColor=none;fillColor=none;align=left;verticalAlign=top;spacingLeft=4;spacingRight=4;overflow=hidden;rotatable=0;points=[[0,0.5],[1,0.5]];portConstraint=eastwest;whiteSpace=wrap;html=1;" parent="Mwp5StKQjGGefRTtp4Jz-201" vertex="1">
          <mxGeometry y="30" width="160" height="26" as="geometry" />
        </mxCell>
        <mxCell id="Mwp5StKQjGGefRTtp4Jz-203" value="&amp;nbsp; +FullName" style="text;strokeColor=none;fillColor=none;align=left;verticalAlign=top;spacingLeft=4;spacingRight=4;overflow=hidden;rotatable=0;points=[[0,0.5],[1,0.5]];portConstraint=eastwest;whiteSpace=wrap;html=1;" parent="Mwp5StKQjGGefRTtp4Jz-201" vertex="1">
          <mxGeometry y="56" width="160" height="24" as="geometry" />
        </mxCell>
        <mxCell id="Mwp5StKQjGGefRTtp4Jz-204" value="+LicenseNumber" style="text;strokeColor=none;fillColor=none;align=left;verticalAlign=top;spacingLeft=4;spacingRight=4;overflow=hidden;rotatable=0;points=[[0,0.5],[1,0.5]];portConstraint=eastwest;whiteSpace=wrap;html=1;" parent="Mwp5StKQjGGefRTtp4Jz-201" vertex="1">
          <mxGeometry y="80" width="160" height="26" as="geometry" />
        </mxCell>
        <mxCell id="Mwp5StKQjGGefRTtp4Jz-205" value="+PhoneNumber" style="text;strokeColor=none;fillColor=none;align=left;verticalAlign=top;spacingLeft=4;spacingRight=4;overflow=hidden;rotatable=0;points=[[0,0.5],[1,0.5]];portConstraint=eastwest;whiteSpace=wrap;html=1;" parent="Mwp5StKQjGGefRTtp4Jz-201" vertex="1">
          <mxGeometry y="106" width="160" height="26" as="geometry" />
        </mxCell>
        <mxCell id="Mwp5StKQjGGefRTtp4Jz-206" value="+Experience" style="text;strokeColor=none;fillColor=none;align=left;verticalAlign=top;spacingLeft=4;spacingRight=4;overflow=hidden;rotatable=0;points=[[0,0.5],[1,0.5]];portConstraint=eastwest;whiteSpace=wrap;html=1;" parent="Mwp5StKQjGGefRTtp4Jz-201" vertex="1">
          <mxGeometry y="132" width="160" height="26" as="geometry" />
        </mxCell>
        <mxCell id="Mwp5StKQjGGefRTtp4Jz-217" value="&lt;b&gt;Routes&lt;/b&gt;" style="swimlane;fontStyle=0;childLayout=stackLayout;horizontal=1;startSize=30;fillColor=none;horizontalStack=0;resizeParent=1;resizeParentMax=0;resizeLast=0;collapsible=1;marginBottom=0;whiteSpace=wrap;html=1;" parent="1" vertex="1">
          <mxGeometry x="374" y="400" width="160" height="236" as="geometry">
            <mxRectangle x="230" y="-260" width="170" height="30" as="alternateBounds" />
          </mxGeometry>
        </mxCell>
        <mxCell id="Mwp5StKQjGGefRTtp4Jz-218" value="+Id" style="text;strokeColor=none;fillColor=none;align=left;verticalAlign=top;spacingLeft=4;spacingRight=4;overflow=hidden;rotatable=0;points=[[0,0.5],[1,0.5]];portConstraint=eastwest;whiteSpace=wrap;html=1;" parent="Mwp5StKQjGGefRTtp4Jz-217" vertex="1">
          <mxGeometry y="30" width="160" height="26" as="geometry" />
        </mxCell>
        <mxCell id="Mwp5StKQjGGefRTtp4Jz-219" value="+VehicleId (FK)" style="text;strokeColor=none;fillColor=none;align=left;verticalAlign=top;spacingLeft=4;spacingRight=4;overflow=hidden;rotatable=0;points=[[0,0.5],[1,0.5]];portConstraint=eastwest;whiteSpace=wrap;html=1;" parent="Mwp5StKQjGGefRTtp4Jz-217" vertex="1">
          <mxGeometry y="56" width="160" height="24" as="geometry" />
        </mxCell>
        <mxCell id="Mwp5StKQjGGefRTtp4Jz-220" value="+DriverId (FK)" style="text;strokeColor=none;fillColor=none;align=left;verticalAlign=top;spacingLeft=4;spacingRight=4;overflow=hidden;rotatable=0;points=[[0,0.5],[1,0.5]];portConstraint=eastwest;whiteSpace=wrap;html=1;" parent="Mwp5StKQjGGefRTtp4Jz-217" vertex="1">
          <mxGeometry y="80" width="160" height="26" as="geometry" />
        </mxCell>
        <mxCell id="Mwp5StKQjGGefRTtp4Jz-221" value="&amp;nbsp;+StartDate" style="text;strokeColor=none;fillColor=none;align=left;verticalAlign=top;spacingLeft=4;spacingRight=4;overflow=hidden;rotatable=0;points=[[0,0.5],[1,0.5]];portConstraint=eastwest;whiteSpace=wrap;html=1;" parent="Mwp5StKQjGGefRTtp4Jz-217" vertex="1">
          <mxGeometry y="106" width="160" height="26" as="geometry" />
        </mxCell>
        <mxCell id="Mwp5StKQjGGefRTtp4Jz-222" value="+EndDate" style="text;strokeColor=none;fillColor=none;align=left;verticalAlign=top;spacingLeft=4;spacingRight=4;overflow=hidden;rotatable=0;points=[[0,0.5],[1,0.5]];portConstraint=eastwest;whiteSpace=wrap;html=1;" parent="Mwp5StKQjGGefRTtp4Jz-217" vertex="1">
          <mxGeometry y="132" width="160" height="26" as="geometry" />
        </mxCell>
        <mxCell id="Mwp5StKQjGGefRTtp4Jz-223" value="+StartLocation" style="text;strokeColor=none;fillColor=none;align=left;verticalAlign=top;spacingLeft=4;spacingRight=4;overflow=hidden;rotatable=0;points=[[0,0.5],[1,0.5]];portConstraint=eastwest;whiteSpace=wrap;html=1;" parent="Mwp5StKQjGGefRTtp4Jz-217" vertex="1">
          <mxGeometry y="158" width="160" height="26" as="geometry" />
        </mxCell>
        <mxCell id="Mwp5StKQjGGefRTtp4Jz-224" value="+EndLocation" style="text;strokeColor=none;fillColor=none;align=left;verticalAlign=top;spacingLeft=4;spacingRight=4;overflow=hidden;rotatable=0;points=[[0,0.5],[1,0.5]];portConstraint=eastwest;whiteSpace=wrap;html=1;" parent="Mwp5StKQjGGefRTtp4Jz-217" vertex="1">
          <mxGeometry y="184" width="160" height="26" as="geometry" />
        </mxCell>
        <mxCell id="Mwp5StKQjGGefRTtp4Jz-225" value="+Distance" style="text;strokeColor=none;fillColor=none;align=left;verticalAlign=top;spacingLeft=4;spacingRight=4;overflow=hidden;rotatable=0;points=[[0,0.5],[1,0.5]];portConstraint=eastwest;whiteSpace=wrap;html=1;" parent="Mwp5StKQjGGefRTtp4Jz-217" vertex="1">
          <mxGeometry y="210" width="160" height="26" as="geometry" />
        </mxCell>
        <mxCell id="Mwp5StKQjGGefRTtp4Jz-226" value="&lt;b&gt;Users&lt;/b&gt;" style="swimlane;fontStyle=0;childLayout=stackLayout;horizontal=1;startSize=30;fillColor=none;horizontalStack=0;resizeParent=1;resizeParentMax=0;resizeLast=0;collapsible=1;marginBottom=0;whiteSpace=wrap;html=1;" parent="1" vertex="1">
          <mxGeometry x="590" y="400" width="160" height="158" as="geometry">
            <mxRectangle x="230" y="-260" width="170" height="30" as="alternateBounds" />
          </mxGeometry>
        </mxCell>
        <mxCell id="Mwp5StKQjGGefRTtp4Jz-227" value="+Id" style="text;strokeColor=none;fillColor=none;align=left;verticalAlign=top;spacingLeft=4;spacingRight=4;overflow=hidden;rotatable=0;points=[[0,0.5],[1,0.5]];portConstraint=eastwest;whiteSpace=wrap;html=1;" parent="Mwp5StKQjGGefRTtp4Jz-226" vertex="1">
          <mxGeometry y="30" width="160" height="26" as="geometry" />
        </mxCell>
        <mxCell id="Mwp5StKQjGGefRTtp4Jz-228" value="+FullName" style="text;strokeColor=none;fillColor=none;align=left;verticalAlign=top;spacingLeft=4;spacingRight=4;overflow=hidden;rotatable=0;points=[[0,0.5],[1,0.5]];portConstraint=eastwest;whiteSpace=wrap;html=1;" parent="Mwp5StKQjGGefRTtp4Jz-226" vertex="1">
          <mxGeometry y="56" width="160" height="24" as="geometry" />
        </mxCell>
        <mxCell id="Mwp5StKQjGGefRTtp4Jz-229" value="&amp;nbsp;+Email" style="text;strokeColor=none;fillColor=none;align=left;verticalAlign=top;spacingLeft=4;spacingRight=4;overflow=hidden;rotatable=0;points=[[0,0.5],[1,0.5]];portConstraint=eastwest;whiteSpace=wrap;html=1;" parent="Mwp5StKQjGGefRTtp4Jz-226" vertex="1">
          <mxGeometry y="80" width="160" height="26" as="geometry" />
        </mxCell>
        <mxCell id="Mwp5StKQjGGefRTtp4Jz-230" value="&amp;nbsp;+Password" style="text;strokeColor=none;fillColor=none;align=left;verticalAlign=top;spacingLeft=4;spacingRight=4;overflow=hidden;rotatable=0;points=[[0,0.5],[1,0.5]];portConstraint=eastwest;whiteSpace=wrap;html=1;" parent="Mwp5StKQjGGefRTtp4Jz-226" vertex="1">
          <mxGeometry y="106" width="160" height="26" as="geometry" />
        </mxCell>
        <mxCell id="Mwp5StKQjGGefRTtp4Jz-231" value="&amp;nbsp; +Role" style="text;strokeColor=none;fillColor=none;align=left;verticalAlign=top;spacingLeft=4;spacingRight=4;overflow=hidden;rotatable=0;points=[[0,0.5],[1,0.5]];portConstraint=eastwest;whiteSpace=wrap;html=1;" parent="Mwp5StKQjGGefRTtp4Jz-226" vertex="1">
          <mxGeometry y="132" width="160" height="26" as="geometry" />
        </mxCell>
        <mxCell id="Mwp5StKQjGGefRTtp4Jz-235" value="" style="endArrow=open;endFill=1;endSize=12;html=1;rounded=0;exitX=1;exitY=0;exitDx=0;exitDy=0;entryX=0;entryY=0;entryDx=40;entryDy=0;entryPerimeter=0;" parent="1" source="Mwp5StKQjGGefRTtp4Jz-53" target="Mwp5StKQjGGefRTtp4Jz-174" edge="1">
          <mxGeometry width="160" relative="1" as="geometry">
            <mxPoint x="400" y="-30" as="sourcePoint" />
            <mxPoint x="560" y="-30" as="targetPoint" />
          </mxGeometry>
        </mxCell>
        <mxCell id="Mwp5StKQjGGefRTtp4Jz-236" value="" style="endArrow=open;endFill=1;endSize=12;html=1;rounded=0;exitX=0.985;exitY=1.024;exitDx=0;exitDy=0;exitPerimeter=0;entryX=0;entryY=0;entryDx=0;entryDy=153;entryPerimeter=0;" parent="1" source="Mwp5StKQjGGefRTtp4Jz-58" target="Mwp5StKQjGGefRTtp4Jz-174" edge="1">
          <mxGeometry width="160" relative="1" as="geometry">
            <mxPoint x="170" y="170" as="sourcePoint" />
            <mxPoint x="330" y="170" as="targetPoint" />
          </mxGeometry>
        </mxCell>
        <mxCell id="Mwp5StKQjGGefRTtp4Jz-237" value="проверяет логин/пароль" style="text;align=center;fontStyle=1;verticalAlign=middle;spacingLeft=3;spacingRight=3;strokeColor=none;rotatable=0;points=[[0,0.5],[1,0.5]];portConstraint=eastwest;html=1;" parent="1" vertex="1">
          <mxGeometry x="130" y="85" width="80" height="26" as="geometry" />
        </mxCell>
        <mxCell id="Mwp5StKQjGGefRTtp4Jz-238" value="сохраняет данные" style="text;align=center;fontStyle=1;verticalAlign=middle;spacingLeft=3;spacingRight=3;strokeColor=none;rotatable=0;points=[[0,0.5],[1,0.5]];portConstraint=eastwest;html=1;" parent="1" vertex="1">
          <mxGeometry x="414" y="20" width="80" height="26" as="geometry" />
        </mxCell>
        <mxCell id="Mwp5StKQjGGefRTtp4Jz-240" style="edgeStyle=orthogonalEdgeStyle;rounded=0;orthogonalLoop=1;jettySize=auto;html=1;entryX=0.482;entryY=1.157;entryDx=0;entryDy=0;entryPerimeter=0;" parent="1" source="Mwp5StKQjGGefRTtp4Jz-168" target="Mwp5StKQjGGefRTtp4Jz-225" edge="1">
          <mxGeometry relative="1" as="geometry">
            <Array as="points">
              <mxPoint x="2410" y="720" />
              <mxPoint x="451" y="720" />
            </Array>
          </mxGeometry>
        </mxCell>
        <mxCell id="Mwp5StKQjGGefRTtp4Jz-241" value="добавляет маршрут" style="text;align=center;fontStyle=1;verticalAlign=middle;spacingLeft=3;spacingRight=3;strokeColor=none;rotatable=0;points=[[0,0.5],[1,0.5]];portConstraint=eastwest;html=1;" parent="1" vertex="1">
          <mxGeometry x="1046" y="670" width="80" height="26" as="geometry" />
        </mxCell>
        <mxCell id="Mwp5StKQjGGefRTtp4Jz-242" style="edgeStyle=orthogonalEdgeStyle;rounded=0;orthogonalLoop=1;jettySize=auto;html=1;entryX=1.051;entryY=0.108;entryDx=0;entryDy=0;entryPerimeter=0;" parent="1" target="Mwp5StKQjGGefRTtp4Jz-225" edge="1">
          <mxGeometry relative="1" as="geometry">
            <mxPoint x="2120" y="-40" as="sourcePoint" />
            <mxPoint x="520" y="630" as="targetPoint" />
            <Array as="points">
              <mxPoint x="2120" y="613" />
            </Array>
          </mxGeometry>
        </mxCell>
        <mxCell id="Mwp5StKQjGGefRTtp4Jz-243" value="изменяет данные" style="text;align=center;fontStyle=1;verticalAlign=middle;spacingLeft=3;spacingRight=3;strokeColor=none;rotatable=0;points=[[0,0.5],[1,0.5]];portConstraint=eastwest;html=1;" parent="1" vertex="1">
          <mxGeometry x="1240" y="560" width="80" height="26" as="geometry" />
        </mxCell>
        <mxCell id="Mwp5StKQjGGefRTtp4Jz-244" style="edgeStyle=orthogonalEdgeStyle;rounded=0;orthogonalLoop=1;jettySize=auto;html=1;exitX=0;exitY=0.5;exitDx=0;exitDy=0;entryX=0.5;entryY=0;entryDx=0;entryDy=0;" parent="1" source="Mwp5StKQjGGefRTtp4Jz-154" target="Mwp5StKQjGGefRTtp4Jz-176" edge="1">
          <mxGeometry relative="1" as="geometry">
            <Array as="points">
              <mxPoint x="1790" y="90" />
              <mxPoint x="454" y="90" />
            </Array>
          </mxGeometry>
        </mxCell>
        <mxCell id="Mwp5StKQjGGefRTtp4Jz-245" value="добавляет транспорт" style="text;align=center;fontStyle=1;verticalAlign=middle;spacingLeft=3;spacingRight=3;strokeColor=none;rotatable=0;points=[[0,0.5],[1,0.5]];portConstraint=eastwest;html=1;" parent="1" vertex="1">
          <mxGeometry x="1370" y="111" width="80" height="26" as="geometry" />
        </mxCell>
        <mxCell id="Mwp5StKQjGGefRTtp4Jz-246" style="edgeStyle=orthogonalEdgeStyle;rounded=0;orthogonalLoop=1;jettySize=auto;html=1;exitX=0.5;exitY=0;exitDx=0;exitDy=0;entryX=1;entryY=0;entryDx=0;entryDy=0;" parent="1" source="Mwp5StKQjGGefRTtp4Jz-143" target="Mwp5StKQjGGefRTtp4Jz-176" edge="1">
          <mxGeometry relative="1" as="geometry">
            <Array as="points">
              <mxPoint x="1642" y="-360" />
              <mxPoint x="534" y="-360" />
            </Array>
          </mxGeometry>
        </mxCell>
        <mxCell id="Mwp5StKQjGGefRTtp4Jz-247" value="&amp;nbsp;изменяет данные" style="text;align=center;fontStyle=1;verticalAlign=middle;spacingLeft=3;spacingRight=3;strokeColor=none;rotatable=0;points=[[0,0.5],[1,0.5]];portConstraint=eastwest;html=1;" parent="1" vertex="1">
          <mxGeometry x="1390" y="-390" width="80" height="26" as="geometry" />
        </mxCell>
        <mxCell id="Mwp5StKQjGGefRTtp4Jz-248" style="edgeStyle=orthogonalEdgeStyle;rounded=0;orthogonalLoop=1;jettySize=auto;html=1;entryX=1;entryY=0;entryDx=0;entryDy=0;" parent="1" source="Mwp5StKQjGGefRTtp4Jz-142" target="Mwp5StKQjGGefRTtp4Jz-201" edge="1">
          <mxGeometry relative="1" as="geometry">
            <Array as="points">
              <mxPoint x="1402" y="40" />
              <mxPoint x="770" y="40" />
            </Array>
          </mxGeometry>
        </mxCell>
        <mxCell id="Mwp5StKQjGGefRTtp4Jz-249" value="добавляет водителя" style="text;align=center;fontStyle=1;verticalAlign=middle;spacingLeft=3;spacingRight=3;strokeColor=none;rotatable=0;points=[[0,0.5],[1,0.5]];portConstraint=eastwest;html=1;" parent="1" vertex="1">
          <mxGeometry x="1280" y="-6" width="80" height="26" as="geometry" />
        </mxCell>
        <mxCell id="Mwp5StKQjGGefRTtp4Jz-251" value="изменяет данные" style="text;align=center;fontStyle=1;verticalAlign=middle;spacingLeft=3;spacingRight=3;strokeColor=none;rotatable=0;points=[[0,0.5],[1,0.5]];portConstraint=eastwest;html=1;" parent="1" vertex="1">
          <mxGeometry x="1030" y="-50" width="80" height="26" as="geometry" />
        </mxCell>
      </root>
    </mxGraphModel>
  </diagram>
</mxfile>
